<svg width="48" height="48" viewBox="0 0 48 48" fill="none" xmlns="http://www.w3.org/2000/svg">
<path opacity="0.4" d="M21.4998 4.89989C22.8998 3.71989 25.1598 3.71989 26.5198 4.89989L29.6798 7.59989C30.2798 8.09989 31.4198 8.51989 32.2198 8.51989H35.6198C37.7398 8.51989 39.4798 10.2599 39.4798 12.3799V15.7799C39.4798 16.5799 39.8998 17.6999 40.3998 18.2999L43.0998 21.4599C44.2798 22.8599 44.2798 25.1199 43.0998 26.4799L40.3998 29.6399C39.8998 30.2399 39.4798 31.3599 39.4798 32.1599V35.5599C39.4798 37.6799 37.7398 39.4199 35.6198 39.4199H32.2198C31.4198 39.4199 30.2998 39.8399 29.6998 40.3399L26.5398 43.0399C25.1398 44.2199 22.8798 44.2199 21.5198 43.0399L18.3598 40.3399C17.7598 39.8399 16.6198 39.4199 15.8398 39.4199H12.3398C10.2198 39.4199 8.47976 37.6799 8.47976 35.5599V32.1399C8.47976 31.3599 8.07977 30.2199 7.57977 29.6399L4.87977 26.4599C3.71977 25.0799 3.71977 22.8399 4.87977 21.4599L7.57977 18.2799C8.07977 17.6799 8.47976 16.5599 8.47976 15.7799V12.3999C8.47976 10.2799 10.2198 8.53989 12.3398 8.53989H15.7998C16.5998 8.53989 17.7198 8.11989 18.3198 7.61989L21.4998 4.89989Z" fill="#E23900"/>
<path d="M24 33.74C22.9 33.74 22 32.84 22 31.74C22 30.64 22.88 29.74 24 29.74C25.1 29.74 26 30.64 26 31.74C26 32.84 25.12 33.74 24 33.74Z" fill="#E23900"/>
<path d="M24 27.44C23.18 27.44 22.5 26.76 22.5 25.94V16.26C22.5 15.44 23.18 14.76 24 14.76C24.82 14.76 25.5 15.44 25.5 16.26V25.92C25.5 26.76 24.84 27.44 24 27.44Z" fill="#E23900"/>
</svg>
