<svg width="24" height="24" viewBox="0 0 24 24" fill="none" xmlns="http://www.w3.org/2000/svg">
<path opacity="0.4" d="M17.9976 7.16C17.9376 7.15 17.8676 7.15 17.8076 7.16C16.4276 7.11 15.3276 5.98 15.3276 4.58C15.3276 3.15 16.4776 2 17.9076 2C19.3376 2 20.4876 3.16 20.4876 4.58C20.4776 5.98 19.3776 7.11 17.9976 7.16Z" stroke="#0074C1" stroke-width="1.5" stroke-linecap="round" stroke-linejoin="round"/>
<path opacity="0.4" d="M16.9675 14.4402C18.3375 14.6702 19.8475 14.4302 20.9075 13.7202C22.3175 12.7802 22.3175 11.2402 20.9075 10.3002C19.8375 9.59016 18.3075 9.35016 16.9375 9.59016" stroke="#0074C1" stroke-width="1.5" stroke-linecap="round" stroke-linejoin="round"/>
<path opacity="0.4" d="M5.96754 7.16C6.02754 7.15 6.09754 7.15 6.15754 7.16C7.53754 7.11 8.63754 5.98 8.63754 4.58C8.63754 3.15 7.48754 2 6.05754 2C4.62754 2 3.47754 3.16 3.47754 4.58C3.48754 5.98 4.58754 7.11 5.96754 7.16Z" stroke="#0074C1" stroke-width="1.5" stroke-linecap="round" stroke-linejoin="round"/>
<path opacity="0.4" d="M6.9975 14.4402C5.6275 14.6702 4.1175 14.4302 3.0575 13.7202C1.6475 12.7802 1.6475 11.2402 3.0575 10.3002C4.1275 9.59016 5.6575 9.35016 7.0275 9.59016" stroke="#0074C1" stroke-width="1.5" stroke-linecap="round" stroke-linejoin="round"/>
<path d="M12.0001 14.6302C11.9401 14.6202 11.8701 14.6202 11.8101 14.6302C10.4301 14.5802 9.33008 13.4502 9.33008 12.0502C9.33008 10.6202 10.4801 9.47021 11.9101 9.47021C13.3401 9.47021 14.4901 10.6302 14.4901 12.0502C14.4801 13.4502 13.3801 14.5902 12.0001 14.6302Z" stroke="#0074C1" stroke-width="1.5" stroke-linecap="round" stroke-linejoin="round"/>
<path d="M9.09021 17.7804C7.68021 18.7204 7.68021 20.2603 9.09021 21.2003C10.6902 22.2703 13.3102 22.2703 14.9102 21.2003C16.3202 20.2603 16.3202 18.7204 14.9102 17.7804C13.3202 16.7204 10.6902 16.7204 9.09021 17.7804Z" stroke="#0074C1" stroke-width="1.5" stroke-linecap="round" stroke-linejoin="round"/>
</svg>
