<svg width="24" height="24" viewBox="0 0 24 24" fill="none" xmlns="http://www.w3.org/2000/svg">
<path opacity="0.4" d="M20.3601 12.7301C19.9901 12.7301 19.6801 12.4501 19.6401 12.0801C19.4001 9.88007 18.2201 7.90007 16.4001 6.64007C16.0701 6.41007 15.9901 5.96007 16.2201 5.63007C16.4501 5.30007 16.9001 5.22007 17.2301 5.45007C19.4001 6.96007 20.8001 9.32007 21.0901 11.9301C21.1301 12.3301 20.8401 12.6901 20.4401 12.7301C20.4101 12.7301 20.3901 12.7301 20.3601 12.7301Z" fill="#0074C1"/>
<path opacity="0.4" d="M3.74029 12.78C3.72029 12.78 3.69029 12.78 3.67029 12.78C3.27029 12.74 2.98029 12.38 3.02029 11.98C3.29029 9.36996 4.67029 7.00996 6.82029 5.48996C7.14029 5.25996 7.60029 5.33996 7.83029 5.65996C8.06029 5.98996 7.98029 6.43996 7.66029 6.66996C5.86029 7.94996 4.69029 9.92996 4.47029 12.12C4.43029 12.5 4.11029 12.78 3.74029 12.78Z" fill="#0074C1"/>
<path opacity="0.4" d="M15.9896 21.1001C14.7596 21.6901 13.4396 21.9901 12.0596 21.9901C10.6196 21.9901 9.24961 21.6701 7.96961 21.0201C7.60961 20.8501 7.46961 20.4101 7.64961 20.0501C7.81961 19.6901 8.25961 19.5501 8.61961 19.7201C9.24961 20.0401 9.91961 20.2601 10.5996 20.3901C11.5196 20.5701 12.4596 20.5801 13.3796 20.4201C14.0596 20.3001 14.7296 20.0901 15.3496 19.7901C15.7196 19.6201 16.1596 19.7601 16.3196 20.1301C16.4996 20.4901 16.3596 20.9301 15.9896 21.1001Z" fill="#0074C1"/>
<path d="M12.0505 2.01001C10.5005 2.01001 9.23047 3.27001 9.23047 4.83001C9.23047 6.39001 10.4905 7.65001 12.0505 7.65001C13.6105 7.65001 14.8705 6.39001 14.8705 4.83001C14.8705 3.27001 13.6105 2.01001 12.0505 2.01001Z" fill="#0074C1"/>
<path d="M5.05047 13.8701C3.50047 13.8701 2.23047 15.1301 2.23047 16.6901C2.23047 18.2501 3.49047 19.5101 5.05047 19.5101C6.61047 19.5101 7.87047 18.2501 7.87047 16.6901C7.87047 15.1301 6.60047 13.8701 5.05047 13.8701Z" fill="#0074C1"/>
<path d="M18.9499 13.8701C17.3999 13.8701 16.1299 15.1301 16.1299 16.6901C16.1299 18.2501 17.3899 19.5101 18.9499 19.5101C20.5099 19.5101 21.7699 18.2501 21.7699 16.6901C21.7699 15.1301 20.5099 13.8701 18.9499 13.8701Z" fill="#0074C1"/>
</svg>
