<svg width="25" height="24" viewBox="0 0 25 24" fill="none" xmlns="http://www.w3.org/2000/svg">
<path d="M12.3335 12C15.0949 12 17.3335 9.76142 17.3335 7C17.3335 4.23858 15.0949 2 12.3335 2C9.57207 2 7.3335 4.23858 7.3335 7C7.3335 9.76142 9.57207 12 12.3335 12Z" stroke="#0074C1" stroke-width="1.5" stroke-linecap="round" stroke-linejoin="round"/>
<path opacity="0.4" d="M3.74365 22C3.74365 18.13 7.59365 15 12.3336 15C13.2936 15 14.2237 15.13 15.0937 15.37" stroke="#0074C1" stroke-width="1.5" stroke-linecap="round" stroke-linejoin="round"/>
<path d="M22.3335 18C22.3335 18.32 22.2935 18.63 22.2135 18.93C22.1235 19.33 21.9635 19.72 21.7535 20.06C21.0635 21.22 19.7935 22 18.3335 22C17.3035 22 16.3735 21.61 15.6735 20.97C15.3735 20.71 15.1135 20.4 14.9135 20.06C14.5435 19.46 14.3335 18.75 14.3335 18C14.3335 16.92 14.7635 15.93 15.4635 15.21C16.1935 14.46 17.2135 14 18.3335 14C19.5135 14 20.5835 14.51 21.3035 15.33C21.9435 16.04 22.3335 16.98 22.3335 18Z" stroke="#0074C1" stroke-width="1.5" stroke-miterlimit="10" stroke-linecap="round" stroke-linejoin="round"/>
<path d="M19.8237 17.98H16.8438" stroke="#0074C1" stroke-width="1.5" stroke-miterlimit="10" stroke-linecap="round" stroke-linejoin="round"/>
<path d="M18.334 16.52V19.51" stroke="#0074C1" stroke-width="1.5" stroke-miterlimit="10" stroke-linecap="round" stroke-linejoin="round"/>
</svg>
