<svg width="48" height="48" viewBox="0 0 48 48" fill="none" xmlns="http://www.w3.org/2000/svg">
<path opacity="0.4" d="M44 15.62V32.38C44 38 41.42 41.8599 36.88 43.3199C35.56 43.7799 34.04 44 32.38 44H15.62C13.96 44 12.44 43.7799 11.12 43.3199C6.58 41.8599 4 38 4 32.38V15.62C4 8.33999 8.33999 4 15.62 4H32.38C39.66 4 44 8.33999 44 15.62Z" fill="#45A31D"/>
<path d="M36.8801 43.3199C35.5601 43.7799 34.0401 44 32.3801 44H15.6201C13.9601 44 12.4401 43.7799 11.1201 43.3199C11.8201 38.0399 17.3401 33.9399 24.0001 33.9399C30.6601 33.9399 36.1801 38.0399 36.8801 43.3199Z" fill="#45A31D"/>
<path d="M31.1599 23.16C31.1599 27.12 27.9598 30.34 23.9998 30.34C20.0398 30.34 16.8398 27.12 16.8398 23.16C16.8398 19.2 20.0398 16 23.9998 16C27.9598 16 31.1599 19.2 31.1599 23.16Z" fill="#45A31D"/>
</svg>
